<mxfile host="app.diagrams.net" agent="Mozilla/5.0 (X11; Linux x86_64) AppleWebKit/537.36 (KHTML, like Gecko) Chrome/129.0.0.0 Safari/537.36" version="24.7.16">
  <diagram name="Page-1" id="gEwPXFOOAXp4nGmpGmfM">
    <mxGraphModel dx="1434" dy="755" grid="1" gridSize="10" guides="1" tooltips="1" connect="1" arrows="1" fold="1" page="1" pageScale="1" pageWidth="850" pageHeight="1100" math="0" shadow="0">
      <root>
        <mxCell id="0" />
        <mxCell id="1" parent="0" />
        <mxCell id="NLCQ9NGZUs79kFDJ8iAd-3" value="S0" style="ellipse;whiteSpace=wrap;html=1;aspect=fixed;verticalAlign=top;" vertex="1" parent="1">
          <mxGeometry x="120" y="130" width="150" height="150" as="geometry" />
        </mxCell>
        <mxCell id="NLCQ9NGZUs79kFDJ8iAd-15" style="edgeStyle=orthogonalEdgeStyle;rounded=0;orthogonalLoop=1;jettySize=auto;html=1;" edge="1" parent="1" source="NLCQ9NGZUs79kFDJ8iAd-4">
          <mxGeometry relative="1" as="geometry">
            <mxPoint x="280" y="565" as="targetPoint" />
          </mxGeometry>
        </mxCell>
        <mxCell id="NLCQ9NGZUs79kFDJ8iAd-18" style="edgeStyle=orthogonalEdgeStyle;rounded=0;orthogonalLoop=1;jettySize=auto;html=1;exitX=0;exitY=0;exitDx=0;exitDy=0;entryX=1;entryY=1;entryDx=0;entryDy=0;" edge="1" parent="1" source="NLCQ9NGZUs79kFDJ8iAd-4" target="NLCQ9NGZUs79kFDJ8iAd-3">
          <mxGeometry relative="1" as="geometry">
            <Array as="points">
              <mxPoint x="450" y="512" />
              <mxPoint x="450" y="258" />
            </Array>
          </mxGeometry>
        </mxCell>
        <mxCell id="NLCQ9NGZUs79kFDJ8iAd-4" value="S2" style="ellipse;whiteSpace=wrap;html=1;aspect=fixed;verticalAlign=top;" vertex="1" parent="1">
          <mxGeometry x="580" y="490" width="150" height="150" as="geometry" />
        </mxCell>
        <mxCell id="NLCQ9NGZUs79kFDJ8iAd-11" style="edgeStyle=orthogonalEdgeStyle;rounded=0;orthogonalLoop=1;jettySize=auto;html=1;entryX=0.5;entryY=0;entryDx=0;entryDy=0;" edge="1" parent="1" source="NLCQ9NGZUs79kFDJ8iAd-5" target="NLCQ9NGZUs79kFDJ8iAd-4">
          <mxGeometry relative="1" as="geometry" />
        </mxCell>
        <mxCell id="NLCQ9NGZUs79kFDJ8iAd-20" style="edgeStyle=orthogonalEdgeStyle;rounded=0;orthogonalLoop=1;jettySize=auto;html=1;entryX=0.5;entryY=0;entryDx=0;entryDy=0;" edge="1" parent="1" source="NLCQ9NGZUs79kFDJ8iAd-5" target="NLCQ9NGZUs79kFDJ8iAd-3">
          <mxGeometry relative="1" as="geometry">
            <Array as="points">
              <mxPoint x="655" y="110" />
              <mxPoint x="195" y="110" />
            </Array>
          </mxGeometry>
        </mxCell>
        <mxCell id="NLCQ9NGZUs79kFDJ8iAd-5" value="S1" style="ellipse;whiteSpace=wrap;html=1;aspect=fixed;verticalAlign=top;" vertex="1" parent="1">
          <mxGeometry x="580" y="140" width="150" height="150" as="geometry" />
        </mxCell>
        <mxCell id="NLCQ9NGZUs79kFDJ8iAd-17" style="edgeStyle=orthogonalEdgeStyle;rounded=0;orthogonalLoop=1;jettySize=auto;html=1;entryX=0.5;entryY=1;entryDx=0;entryDy=0;" edge="1" parent="1" source="NLCQ9NGZUs79kFDJ8iAd-6" target="NLCQ9NGZUs79kFDJ8iAd-3">
          <mxGeometry relative="1" as="geometry" />
        </mxCell>
        <mxCell id="NLCQ9NGZUs79kFDJ8iAd-6" value="S3" style="ellipse;whiteSpace=wrap;html=1;aspect=fixed;verticalAlign=top;" vertex="1" parent="1">
          <mxGeometry x="120" y="500" width="150" height="150" as="geometry" />
        </mxCell>
        <mxCell id="NLCQ9NGZUs79kFDJ8iAd-7" value="cuenta=0" style="text;html=1;align=center;verticalAlign=middle;whiteSpace=wrap;rounded=0;" vertex="1" parent="1">
          <mxGeometry x="165" y="190" width="60" height="30" as="geometry" />
        </mxCell>
        <mxCell id="NLCQ9NGZUs79kFDJ8iAd-8" style="edgeStyle=orthogonalEdgeStyle;rounded=0;orthogonalLoop=1;jettySize=auto;html=1;entryX=0.007;entryY=0.427;entryDx=0;entryDy=0;entryPerimeter=0;" edge="1" parent="1" source="NLCQ9NGZUs79kFDJ8iAd-3" target="NLCQ9NGZUs79kFDJ8iAd-5">
          <mxGeometry relative="1" as="geometry" />
        </mxCell>
        <mxCell id="NLCQ9NGZUs79kFDJ8iAd-9" value="~inhibit" style="text;html=1;align=center;verticalAlign=middle;whiteSpace=wrap;rounded=0;" vertex="1" parent="1">
          <mxGeometry x="400" y="170" width="60" height="30" as="geometry" />
        </mxCell>
        <mxCell id="NLCQ9NGZUs79kFDJ8iAd-10" value="cuenta=1" style="text;html=1;align=center;verticalAlign=middle;whiteSpace=wrap;rounded=0;" vertex="1" parent="1">
          <mxGeometry x="625" y="190" width="60" height="30" as="geometry" />
        </mxCell>
        <mxCell id="NLCQ9NGZUs79kFDJ8iAd-12" value="cuenta=2" style="text;html=1;align=center;verticalAlign=middle;whiteSpace=wrap;rounded=0;" vertex="1" parent="1">
          <mxGeometry x="625" y="550" width="60" height="30" as="geometry" />
        </mxCell>
        <mxCell id="NLCQ9NGZUs79kFDJ8iAd-13" value="~inhibit" style="text;html=1;align=center;verticalAlign=middle;whiteSpace=wrap;rounded=0;" vertex="1" parent="1">
          <mxGeometry x="670" y="380" width="60" height="30" as="geometry" />
        </mxCell>
        <mxCell id="NLCQ9NGZUs79kFDJ8iAd-14" value="~inhibit" style="text;html=1;align=center;verticalAlign=middle;whiteSpace=wrap;rounded=0;" vertex="1" parent="1">
          <mxGeometry x="400" y="530" width="60" height="30" as="geometry" />
        </mxCell>
        <mxCell id="NLCQ9NGZUs79kFDJ8iAd-16" value="cuenta=3" style="text;html=1;align=center;verticalAlign=middle;whiteSpace=wrap;rounded=0;" vertex="1" parent="1">
          <mxGeometry x="165" y="560" width="60" height="30" as="geometry" />
        </mxCell>
        <mxCell id="NLCQ9NGZUs79kFDJ8iAd-19" value="inhibit" style="text;html=1;align=center;verticalAlign=middle;whiteSpace=wrap;rounded=0;" vertex="1" parent="1">
          <mxGeometry x="500" y="480" width="60" height="30" as="geometry" />
        </mxCell>
        <mxCell id="NLCQ9NGZUs79kFDJ8iAd-21" value="inhibit" style="text;html=1;align=center;verticalAlign=middle;whiteSpace=wrap;rounded=0;" vertex="1" parent="1">
          <mxGeometry x="410" y="80" width="60" height="30" as="geometry" />
        </mxCell>
      </root>
    </mxGraphModel>
  </diagram>
</mxfile>
